<svg width="354" height="587" viewBox="0 0 354 587" fill="none" xmlns="http://www.w3.org/2000/svg">
<g clip-path="url(#clip0_419_1573)">
<g filter="url(#filter0_f_419_1573)">
<path d="M101.991 352.954L63.1214 255.991L73.3031 260.345L30.5203 277.496L20.1243 251.562L123.199 210.242L133.595 236.176L90.9778 253.26L95.3324 243.079L134.202 340.042L101.991 352.954Z" fill="#2247AF" fill-opacity="0.4"/>
</g>
<g filter="url(#filter1_f_419_1573)">
<path fill-rule="evenodd" clip-rule="evenodd" d="M320.432 39.8771L289.66 25.9385L274.649 59.0778L243.877 45.1393L229.938 75.9113L260.71 89.8499L246.772 120.622L277.544 134.56L291.482 103.788L324.622 118.799L338.56 88.0272L305.421 73.0163L320.432 39.8771Z" fill="#2247AF" fill-opacity="0.4"/>
</g>
<g filter="url(#filter2_f_419_1573)">
<path fill-rule="evenodd" clip-rule="evenodd" d="M130.432 459.877L99.6597 445.939L84.6489 479.078L53.8769 465.139L39.9383 495.911L70.7103 509.85L56.7718 540.622L87.5439 554.56L101.482 523.788L134.622 538.799L148.56 508.027L115.421 493.016L130.432 459.877Z" fill="#2247AF" fill-opacity="0.4"/>
</g>
<g filter="url(#filter3_f_419_1573)">
<path d="M95 110C95 140.376 70.3757 165 40 165C9.62434 165 -15 140.376 -15 110C-15 79.6243 9.62434 55 40 55C70.3757 55 95 79.6243 95 110ZM4.99946 110C4.99946 129.33 20.6697 145.001 40 145.001C59.3303 145.001 75.0005 129.33 75.0005 110C75.0005 90.6697 59.3303 74.9995 40 74.9995C20.6697 74.9995 4.99946 90.6697 4.99946 110Z" fill="#2247AF" fill-opacity="0.4"/>
</g>
<g filter="url(#filter4_f_419_1573)">
<path d="M289 233C289 263.376 264.376 288 234 288C203.624 288 179 263.376 179 233C179 202.624 203.624 178 234 178C264.376 178 289 202.624 289 233ZM198.999 233C198.999 252.33 214.67 268.001 234 268.001C253.33 268.001 269.001 252.33 269.001 233C269.001 213.67 253.33 197.999 234 197.999C214.67 197.999 198.999 213.67 198.999 233Z" fill="#2247AF" fill-opacity="0.4"/>
</g>
</g>
<defs>
<filter id="filter0_f_419_1573" x="10.124" y="200.242" width="169.427" height="176.948" filterUnits="userSpaceOnUse" color-interpolation-filters="sRGB">
<feFlood flood-opacity="0" result="BackgroundImageFix"/>
<feBlend mode="normal" in="SourceGraphic" in2="BackgroundImageFix" result="shape"/>
<feGaussianBlur stdDeviation="5" result="effect1_foregroundBlur_419_1573"/>
</filter>
<filter id="filter1_f_419_1573" x="219.938" y="15.9385" width="128.622" height="128.622" filterUnits="userSpaceOnUse" color-interpolation-filters="sRGB">
<feFlood flood-opacity="0" result="BackgroundImageFix"/>
<feBlend mode="normal" in="SourceGraphic" in2="BackgroundImageFix" result="shape"/>
<feGaussianBlur stdDeviation="5" result="effect1_foregroundBlur_419_1573"/>
</filter>
<filter id="filter2_f_419_1573" x="29.9385" y="435.938" width="128.622" height="128.622" filterUnits="userSpaceOnUse" color-interpolation-filters="sRGB">
<feFlood flood-opacity="0" result="BackgroundImageFix"/>
<feBlend mode="normal" in="SourceGraphic" in2="BackgroundImageFix" result="shape"/>
<feGaussianBlur stdDeviation="5" result="effect1_foregroundBlur_419_1573"/>
</filter>
<filter id="filter3_f_419_1573" x="-25" y="45" width="130" height="130" filterUnits="userSpaceOnUse" color-interpolation-filters="sRGB">
<feFlood flood-opacity="0" result="BackgroundImageFix"/>
<feBlend mode="normal" in="SourceGraphic" in2="BackgroundImageFix" result="shape"/>
<feGaussianBlur stdDeviation="5" result="effect1_foregroundBlur_419_1573"/>
</filter>
<filter id="filter4_f_419_1573" x="169" y="168" width="130" height="130" filterUnits="userSpaceOnUse" color-interpolation-filters="sRGB">
<feFlood flood-opacity="0" result="BackgroundImageFix"/>
<feBlend mode="normal" in="SourceGraphic" in2="BackgroundImageFix" result="shape"/>
<feGaussianBlur stdDeviation="5" result="effect1_foregroundBlur_419_1573"/>
</filter>
<clipPath id="clip0_419_1573">
<rect width="354" height="587" fill="white"/>
</clipPath>
</defs>
</svg>
